<svg width="35" height="40" viewBox="0 0 35 40" fill="none" xmlns="http://www.w3.org/2000/svg">
<g clip-path="url(#clip0_2022_4608)">
<path d="M20.3397 27.3022L23.9699 23.5536C23.2574 25.2234 21.9568 26.5664 20.3397 27.3022ZM14.9175 27.4125H20.0826C19.282 27.7382 18.4114 27.9192 17.5001 27.9192C16.5887 27.9192 15.7181 27.7382 14.9175 27.4125ZM11.026 23.544L14.67 27.3066C13.0455 26.5704 11.739 25.2214 11.026 23.544ZM10.9116 17.9861V23.257C10.6036 22.439 10.4328 21.5507 10.4328 20.6216C10.4328 19.6924 10.6036 18.8041 10.9116 17.9861ZM14.6173 13.9612L11.0499 17.6448C11.76 16.0107 13.035 14.6943 14.6173 13.9612ZM16.1897 11.9809V11.9791C16.1874 11.9125 16.1661 11.8479 16.1287 11.7935L15.6136 11.0441L16.2484 11.5319L16.5117 11.3952V10.3569L17.3726 11.4998H17.6328L18.4936 10.3569V11.3952L18.7569 11.5319L19.3918 11.0441L18.8764 11.7939C18.8391 11.8481 18.8181 11.9123 18.8156 11.9785V11.9805C18.8137 12.0345 18.8269 12.0881 18.8541 12.1342L19.5192 13.275C18.8768 13.0865 18.2002 12.9834 17.5001 12.9834C16.8022 12.9834 16.1276 13.0857 15.4873 13.2731L16.1517 12.134C16.1785 12.0879 16.1917 12.0347 16.1897 11.9809ZM23.946 17.6351L20.3923 13.9656C21.9673 14.6982 23.2366 16.0089 23.946 17.6351ZM24.0938 17.9995C24.3986 18.8139 24.5675 19.6976 24.5675 20.6216C24.5675 21.5456 24.3986 22.4293 24.0938 23.2436V17.9995ZM20.2229 26.9412L18.8253 23.436L20.2423 21.9931L23.605 23.4488L20.2229 26.9412ZM17.5177 24.7675L19.7495 27.072H15.2549L17.5177 24.7675ZM14.7903 21.9512L16.2031 23.4101L14.7854 26.9442L11.3675 23.4149L14.7903 21.9512ZM14.8054 14.2483L16.2239 17.8061L14.8044 19.27L11.3784 17.787L14.8054 14.2483ZM19.8259 13.8009H15.1795L15.2313 13.7118C15.9439 13.4616 16.7065 13.3239 17.5001 13.3239C18.296 13.3239 19.0609 13.4623 19.7754 13.7142L19.8259 13.8009ZM20.1912 19.2725L18.7972 17.833L20.2248 14.274L23.6379 17.7985L20.1912 19.2725ZM21.5431 20.6686L23.764 18.4068V22.9619L21.5431 20.6686ZM21.3084 20.9076L23.2725 22.9358L20.4967 21.7341L21.3084 20.9076ZM20.4436 19.5331L23.4519 18.2463L21.3099 20.4278L20.4436 19.5331ZM17.9126 20.6156L20.1139 19.6742L21.0752 20.6668L20.1671 21.5916L17.9126 20.6156ZM17.8345 20.9507L19.9128 21.8504L18.6897 23.0961L17.8345 20.9507ZM17.2021 20.9194L16.3396 23.0696L15.1198 21.8101L17.2021 20.9194ZM17.2255 20.318L15.1332 19.4123L16.36 18.1474L17.2255 20.318ZM18.6605 18.1735L19.8615 19.4135L17.8114 20.2903L18.6605 18.1735ZM17.4983 16.9734L18.4081 17.9129L17.5131 20.1445L16.6128 17.8867L17.4983 16.9734ZM17.2651 16.7326L16.4767 17.5454L15.374 14.7798L17.2651 16.7326ZM19.6929 14.7104L18.5447 17.5725L17.7317 16.7328L19.6929 14.7104ZM17.4983 16.492L15.2218 14.1414H19.7777L17.4983 16.492ZM13.9648 20.6174L14.8812 19.6724L17.0554 20.6136L14.8676 21.5495L13.9648 20.6174ZM13.7316 20.8578L14.5378 21.6905L11.7806 22.8698L13.7316 20.8578ZM11.7275 18.3073L14.5522 19.5301L13.7316 20.3765L11.7275 18.3073ZM13.4982 20.617L11.2414 22.9444V18.2867L13.4982 20.617ZM17.2846 24.5267L15.3021 26.5457L16.4554 23.6706L17.2846 24.5267ZM18.5717 23.6944L19.7103 26.5499L17.7525 24.5285L18.5717 23.6944ZM17.5195 24.2878L16.592 23.3303L17.5121 21.0366L18.4361 23.3543L17.5195 24.2878ZM19.9955 13.4317L19.1506 11.9831L20.2635 10.3637L20.0307 10.1285L18.8234 11.0563V9.86063L18.5284 9.7561L17.5026 11.1179L16.477 9.7561L16.182 9.86063V11.0563L14.9746 10.1285L14.7418 10.3637L15.8547 11.9831L15.0112 13.4294C12.1533 14.4871 10.103 17.3113 10.103 20.6216C10.103 24.8333 13.4212 28.2597 17.5001 28.2597C21.5788 28.2597 24.8973 24.8333 24.8973 20.6216C24.8973 17.3139 22.8499 14.4913 19.9955 13.4317Z" fill="#222222"/>
<path d="M7.27426 25.7291L2.72737 18.9278L4.78619 16.3035H4.38104L1.4707 19.9718V20.3512L4.67875 25.074C4.88628 25.3916 5.1113 25.6396 5.35361 25.8184C5.59575 25.9972 5.88992 26.0865 6.23604 26.0865H7.85103V25.9077L7.27426 25.7291Z" fill="#222222"/>
<path d="M1.50328 23.7526H0V16.3096H1.50328V23.7526Z" fill="#222222"/>
<path d="M27.7259 25.7291L32.2729 18.9278L30.214 16.3035H30.6192L33.5295 19.9718V20.3512L30.3215 25.074C30.1139 25.3916 29.8889 25.6396 29.6466 25.8184C29.4045 25.9972 29.1103 26.0865 28.7642 26.0865H27.1492V25.9077L27.7259 25.7291Z" fill="#222222"/>
<path d="M33.4968 23.7526H35.0001V16.3096H33.4968V23.7526Z" fill="#222222"/>
<path d="M4.19381 6.76171L5.6728 6.8454L5.37296 5.34531L5.5871 5.08826L7.26274 6.57591L7.04041 6.84276L6.33426 6.21595C6.2305 6.12382 6.13412 6.03454 6.04491 5.94826C5.95571 5.86219 5.86983 5.77208 5.78685 5.67837L6.04278 7.03621L5.90675 7.19933L4.57252 7.13674C4.67496 7.20738 4.77347 7.28219 4.86887 7.36105C4.9641 7.43991 5.0638 7.5254 5.16735 7.61749L5.87371 8.24435L5.65121 8.5112L3.97559 7.02377L4.19381 6.76171Z" fill="#222222"/>
<path d="M8.30603 2.80322L8.31244 4.53223L8.84273 5.25016L8.57165 5.46366L8.05284 4.7612L6.37817 4.32116L6.74465 4.03262L7.99765 4.39078L7.97473 3.06407L8.30603 2.80322Z" fill="#222222"/>
<path d="M11.7105 3.52143L11.3913 3.64523L10.6147 1.50887L10.934 1.38527L11.3466 2.52037L11.7092 1.8855L12.2845 0.861766L12.7457 0.682983L12.0282 1.9465L13.4926 2.83078L13.0731 2.99351L11.8572 2.24607L11.4842 2.8988L11.7105 3.52143Z" fill="#222222"/>
<path d="M14.8211 1.01592L14.63 1.69352L15.5406 1.54604L15.1528 0.9491C15.1139 0.889307 15.0762 0.830516 15.0399 0.772727C15.0032 0.714736 14.966 0.651531 14.928 0.582907C14.9124 0.662366 14.8955 0.73721 14.8772 0.807039C14.8592 0.877267 14.8405 0.946692 14.8211 1.01592ZM16.0688 2.35146L15.7445 1.85625L14.5311 2.05269L14.3691 2.62656L14.0166 2.68374L14.6942 0.264272L15.0778 0.202271L16.4367 2.29187L16.0688 2.35146Z" fill="#222222"/>
<path d="M17.1877 1.58664C17.2992 1.72288 17.4191 1.82963 17.5475 1.90668C17.6756 1.98373 17.8313 2.02526 18.0143 2.03108C18.1152 2.03429 18.2133 2.02466 18.3089 2.00159C18.4043 1.97871 18.4828 1.94159 18.5444 1.89022C18.606 1.83906 18.6381 1.77224 18.6406 1.68957C18.6427 1.61794 18.6177 1.56055 18.5654 1.51761C18.5129 1.47447 18.4356 1.43996 18.3334 1.41367C18.2308 1.38759 18.1074 1.36231 17.9628 1.33803C17.7848 1.30612 17.6309 1.26137 17.5011 1.20399C17.3711 1.1464 17.272 1.07136 17.2032 0.978856C17.1346 0.886557 17.1022 0.772786 17.1062 0.638148C17.1107 0.497089 17.1564 0.378503 17.2435 0.28239C17.3307 0.186277 17.4461 0.114042 17.5897 0.0652833C17.7333 0.0167255 17.8913 -0.00474433 18.0639 0.000873958C18.2784 0.00789677 18.4628 0.0488301 18.6175 0.123473C18.772 0.198116 18.8917 0.30085 18.976 0.431877L18.7411 0.67868C18.6663 0.576148 18.571 0.491471 18.455 0.424653C18.3392 0.357836 18.2026 0.321718 18.0446 0.316702C17.8849 0.311485 17.7504 0.334761 17.6414 0.386729C17.5324 0.438498 17.4764 0.515551 17.4733 0.61748C17.4708 0.695735 17.4953 0.759142 17.5464 0.807498C17.5975 0.855858 17.67 0.894781 17.764 0.923876C17.8577 0.952975 17.9677 0.979458 18.0932 1.00314C18.2147 1.0222 18.3309 1.04688 18.4415 1.07657C18.552 1.10607 18.6503 1.1442 18.7366 1.19054C18.8223 1.2369 18.8901 1.29729 18.9395 1.37153C18.9886 1.44618 19.0116 1.53868 19.0083 1.64944C19.0038 1.79712 18.9591 1.92454 18.875 2.03148C18.7904 2.13863 18.6734 2.21949 18.5232 2.27447C18.373 2.32925 18.197 2.35353 17.9951 2.34691C17.7784 2.33969 17.5839 2.29855 17.4113 2.22331C17.239 2.14826 17.0878 2.03008 16.958 1.86936L17.1877 1.58664Z" fill="#222222"/>
<path d="M20.8393 1.14579L20.4208 1.7038L21.3205 1.91168L21.1718 1.2092C21.1568 1.13897 21.1427 1.07014 21.1292 1.00232C21.1158 0.934701 21.1036 0.861664 21.0927 0.783413C21.0498 0.851633 21.0074 0.91464 20.9656 0.973026C20.924 1.03122 20.8819 1.0888 20.8393 1.14579ZM21.5253 2.86097L21.3996 2.27747L20.2012 2.00037L19.8465 2.4729L19.4983 2.39244L20.9886 0.39856L21.3673 0.486244L21.8888 2.94504L21.5253 2.86097Z" fill="#222222"/>
<path d="M24.318 1.88716L23.5939 1.55468L23.2951 2.24854L24.0364 2.58904C24.1075 2.62175 24.1794 2.6352 24.2521 2.62938C24.325 2.62356 24.3904 2.60128 24.4486 2.56256C24.5067 2.52383 24.5498 2.47186 24.5782 2.40625C24.6054 2.34284 24.6118 2.27723 24.5972 2.20981C24.5823 2.14239 24.5504 2.08019 24.5012 2.023C24.4521 1.96602 24.391 1.92067 24.318 1.88716ZM24.9056 2.56015C24.8646 2.65546 24.8063 2.73572 24.7311 2.80113C24.6557 2.86635 24.5702 2.9139 24.4744 2.9438C24.3786 2.97349 24.2797 2.98393 24.1775 2.9751L24.3943 4.0522L24.009 3.87161L23.8077 2.85511L23.1616 2.55834L22.8293 3.32965L22.5178 3.18679L23.4157 1.10181L24.5323 1.61447C24.6475 1.66745 24.7426 1.7451 24.8172 1.84703C24.8918 1.94916 24.9386 2.06233 24.9579 2.18633C24.9769 2.31054 24.9596 2.43514 24.9056 2.56015Z" fill="#222222"/>
<path d="M26.1806 5.24814L25.0112 4.43829L25.1978 4.15136L25.6408 4.45816L26.4989 3.13707L26.0557 2.83027L26.2422 2.54333L27.4115 3.35317L27.2251 3.6401L26.7821 3.3333L25.9241 4.65438L26.367 4.96119L26.1806 5.24814Z" fill="#222222"/>
<path d="M29.7867 5.52821L30.0306 5.77423L28.4869 7.40672L28.245 7.16294L28.259 4.68487C28.1739 4.79344 28.0889 4.90219 28.0038 5.01072C27.9187 5.11929 27.8291 5.22342 27.7349 5.32294L27.0933 6.00157L26.8494 5.75555L28.393 4.12305L28.6303 4.36223L28.5878 6.8752C28.6492 6.78852 28.7197 6.69784 28.799 6.60294C28.8783 6.50821 28.9593 6.41472 29.0425 6.32219C29.1254 6.22993 29.2045 6.14382 29.2795 6.06456L29.7867 5.52821Z" fill="#222222"/>
<path d="M30.7221 7.97925L30.0463 8.0858L30.5595 8.87657L30.9205 8.26176C30.9567 8.20017 30.9924 8.14017 31.0278 8.08158C31.0634 8.02299 31.1032 7.96141 31.1473 7.89679C31.0709 7.91582 30.9983 7.93152 30.9289 7.94395C30.8599 7.95657 30.7909 7.96822 30.7221 7.97925ZM30.0747 9.71028L30.3729 9.19802L29.6893 8.14457L29.1168 8.23446L28.9185 7.92848L31.3286 7.54382L31.5447 7.87692L30.282 10.0299L30.0747 9.71028Z" fill="#222222"/>
<path d="M31.4392 31.9398L29.9579 31.9544L30.3502 33.4314L30.1528 33.7021L28.3882 32.3286L28.5932 32.0475L29.337 32.6264C29.4463 32.7115 29.548 32.7939 29.6423 32.8742C29.7366 32.9545 29.8281 33.0385 29.9167 33.1264L29.577 31.7885L29.7023 31.6167L31.0379 31.5906C30.9314 31.5268 30.8281 31.459 30.7284 31.3864C30.6281 31.3141 30.5236 31.2353 30.4143 31.1502L29.6707 30.5717L29.8759 30.2904L31.6405 31.6639L31.4392 31.9398Z" fill="#222222"/>
<path d="M27.581 36.1628L27.4671 34.4377L26.8933 33.7563L27.1506 33.5254L27.712 34.1922L29.4105 34.52L29.0627 34.8324L27.7901 34.5581L27.8954 35.8804L27.581 36.1628Z" fill="#222222"/>
<path d="M24.1421 35.6712L24.4528 35.5264L25.3624 37.6059L25.0517 37.7508L24.5683 36.6456L24.2464 37.3037L23.7369 38.364L23.2881 38.5733L23.9245 37.2642L22.4072 36.4803L22.8159 36.2898L24.0762 36.954L24.4072 36.2774L24.1421 35.6712Z" fill="#222222"/>
<path d="M21.1907 38.3818L21.3389 37.6927L20.4394 37.9008L20.8636 38.4705C20.9064 38.5277 20.9475 38.5838 20.9876 38.639C21.0276 38.6944 21.0688 38.755 21.1112 38.8208C21.1219 38.7405 21.1339 38.6647 21.1475 38.5939C21.1613 38.5227 21.1757 38.452 21.1907 38.3818ZM19.8619 37.1321L20.2165 37.6047L21.4149 37.3278L21.5408 36.7442L21.889 36.6636L21.3644 39.1232L20.9852 39.2109L19.4983 37.2162L19.8619 37.1321Z" fill="#222222"/>
<path d="M18.7936 37.9696C18.6739 37.8408 18.5476 37.7422 18.4151 37.6736C18.2824 37.6052 18.1246 37.5739 17.9415 37.5801C17.8407 37.5831 17.7433 37.5994 17.6493 37.6287C17.5554 37.6578 17.4792 37.6999 17.4211 37.7553C17.3628 37.8103 17.3349 37.8791 17.3374 37.9617C17.3397 38.0334 17.3681 38.0889 17.4231 38.1285C17.4779 38.168 17.5574 38.1975 17.6611 38.2168C17.7649 38.2362 17.8897 38.2535 18.0354 38.2682C18.215 38.2886 18.3714 38.3231 18.5045 38.3721C18.6374 38.4209 18.7412 38.4893 18.8154 38.5769C18.8898 38.6649 18.9289 38.7762 18.9331 38.9107C18.9374 39.0519 18.899 39.1733 18.8179 39.2748C18.7369 39.3765 18.6261 39.456 18.4857 39.514C18.3454 39.5718 18.1891 39.6037 18.0165 39.6093C17.8018 39.6163 17.6153 39.5875 17.4563 39.5232C17.2976 39.4588 17.1718 39.3639 17.0797 39.2387L17.2991 38.977C17.3802 39.0746 17.4802 39.1528 17.5999 39.2118C17.7198 39.271 17.8586 39.2981 18.0161 39.2931C18.1761 39.2877 18.3088 39.2556 18.4145 39.1968C18.52 39.1378 18.5711 39.0573 18.568 38.9552C18.5657 38.8769 18.5375 38.8155 18.4833 38.7706C18.4295 38.7257 18.3547 38.6917 18.2593 38.6685C18.1638 38.6456 18.0527 38.6263 17.9258 38.6111C17.8034 38.5998 17.686 38.5832 17.5737 38.5605C17.4616 38.5382 17.3609 38.5067 17.2723 38.4662C17.1837 38.4255 17.1126 38.3697 17.0587 38.2987C17.0049 38.2274 16.9763 38.1365 16.9731 38.0257C16.9684 37.8781 17.0051 37.7481 17.0826 37.6357C17.1603 37.5233 17.2723 37.4351 17.4188 37.3704C17.5653 37.3058 17.7394 37.2703 17.9414 37.2635C18.158 37.2565 18.3547 37.2849 18.5313 37.3486C18.7083 37.4126 18.8663 37.5203 19.0056 37.6724L18.7936 37.9696Z" fill="#222222"/>
<path d="M15.1824 38.6514L15.565 38.0665L14.6543 37.9194L14.8469 38.6103C14.8663 38.6795 14.8847 38.7473 14.9024 38.8142C14.9197 38.8808 14.9366 38.9526 14.9525 39.03C14.991 38.959 15.0293 38.8932 15.0672 38.8322C15.1053 38.7714 15.1438 38.7112 15.1824 38.6514ZM14.39 36.9858L14.5523 37.5598L15.7656 37.7557L16.0897 37.2603L16.4422 37.3175L15.081 39.4071L14.6972 39.3451L14.022 36.9264L14.39 36.9858Z" fill="#222222"/>
<path d="M11.6645 38.1451L12.4079 38.4282L12.6625 37.7155L11.9012 37.4258C11.8283 37.3978 11.7556 37.3892 11.6833 37.4001C11.611 37.4109 11.5471 37.4374 11.4915 37.4801C11.436 37.5225 11.3961 37.5775 11.3722 37.6447C11.3489 37.7099 11.3466 37.7757 11.3656 37.8419C11.3847 37.9081 11.4204 37.9681 11.473 38.0219C11.5255 38.0753 11.5894 38.1164 11.6645 38.1451ZM11.0356 37.5131C11.0704 37.4151 11.1237 37.331 11.1946 37.261C11.2657 37.1906 11.3481 37.1376 11.4418 37.1015C11.5355 37.0652 11.6336 37.0481 11.7358 37.0502L11.4517 35.9901L11.8473 36.144L12.1126 37.1451L12.776 37.3975L13.0589 36.6055L13.3788 36.7273L12.6143 38.8683L11.4678 38.4316C11.3495 38.3865 11.2498 38.3157 11.1688 38.2187C11.0879 38.1218 11.0341 38.012 11.0071 37.8897C10.9803 37.7669 10.9896 37.6415 11.0356 37.5131Z" fill="#222222"/>
<path d="M9.59036 34.9132L10.8078 35.6438L10.6395 35.9424L10.1784 35.6656L9.40439 37.0409L9.86571 37.3176L9.69763 37.6166L8.48022 36.8862L8.64831 36.5875L9.10963 36.8642L9.8836 35.4887L9.42228 35.212L9.59036 34.9132Z" fill="#222222"/>
<path d="M5.97933 34.8773L5.72046 34.6479L7.15904 32.9163L7.41553 33.1432L7.55642 35.6173C7.63475 35.5031 7.71264 35.3891 7.79079 35.2749C7.8689 35.161 7.95167 35.051 8.03951 34.9457L8.63762 34.2255L8.89645 34.4549L7.45753 36.1867L7.20587 35.9638L7.09161 33.453C7.03565 33.5437 6.97111 33.6392 6.89787 33.7389C6.82462 33.8387 6.74942 33.9374 6.67225 34.0353C6.59533 34.1331 6.52187 34.2241 6.45209 34.3082L5.97933 34.8773Z" fill="#222222"/>
<path d="M4.89102 32.4911L5.55871 32.3398L4.99709 31.5848L4.6753 32.2223C4.64325 32.2863 4.61119 32.3485 4.57931 32.4093C4.54764 32.4703 4.5117 32.5343 4.47166 32.6017C4.54687 32.5778 4.61837 32.5572 4.68657 32.5401C4.75478 32.5228 4.82282 32.5066 4.89102 32.4911ZM5.42909 30.7206L5.16326 31.2517L5.91119 32.2574L6.47687 32.1296L6.69412 32.4217L4.31271 32.9659L4.07642 32.6478L5.20231 30.4154L5.42909 30.7206Z" fill="#222222"/>
</g>
<defs>
<clipPath id="clip0_2022_4608">
<rect width="35" height="40" fill="white"/>
</clipPath>
</defs>
</svg>
