<svg width="70" height="80" viewBox="0 0 70 80" fill="none" xmlns="http://www.w3.org/2000/svg">
<g clip-path="url(#clip0_2022_2824)">
<path d="M40.5304 54.6043L47.7643 47.1072C46.3444 50.4468 43.7528 53.1328 40.5304 54.6043ZM29.7258 54.8251H40.0181C38.4228 55.4764 36.688 55.8384 34.872 55.8384C33.0559 55.8384 31.3212 55.4764 29.7258 54.8251ZM21.9714 47.0879L29.2325 54.6132C25.9954 53.1408 23.3921 50.4428 21.9714 47.0879ZM21.7433 35.9722V46.5141C21.1296 44.8779 20.7892 43.1013 20.7892 41.2433C20.7892 39.3848 21.1296 37.6083 21.7433 35.9722ZM29.1276 27.9223L22.019 35.2895C23.4339 32.0213 25.9745 29.3887 29.1276 27.9223ZM32.2609 23.9619V23.9583C32.2563 23.825 32.2137 23.6958 32.1394 23.587L31.1129 22.0882L32.3779 23.0638L32.9026 22.7904V20.7137L34.6179 22.9995H35.1364L36.8517 20.7137V22.7904L37.3764 23.0638L38.6415 22.0882L37.6146 23.5878C37.5403 23.6962 37.4984 23.8246 37.4934 23.957V23.9611C37.4896 24.069 37.5158 24.1761 37.5701 24.2684L38.8955 26.5499C37.6154 26.173 36.2671 25.9668 34.872 25.9668C33.4814 25.9668 32.137 26.1715 30.8611 26.5462L32.185 24.2681C32.2385 24.1758 32.2648 24.0694 32.2609 23.9619ZM47.7167 35.2703L40.6352 27.9312C43.7737 29.3963 46.303 32.0177 47.7167 35.2703ZM48.0111 35.9991C48.6186 37.6279 48.9551 39.3953 48.9551 41.2433C48.9551 43.0913 48.6186 44.8587 48.0111 46.4872V35.9991ZM40.2977 53.8824L37.5128 46.872L40.3364 43.9862L47.0372 46.8977L40.2977 53.8824ZM34.9072 49.5351L39.3543 54.144H30.398L34.9072 49.5351ZM29.4722 43.9024L32.2876 46.8202L29.4625 53.8884L22.6517 46.8298L29.4722 43.9024ZM29.5024 28.4966L32.329 35.6122L29.5004 38.5401L22.6734 35.574L29.5024 28.4966ZM39.5065 27.6017H30.2478L30.3511 27.4235C31.7711 26.9231 33.2906 26.6478 34.872 26.6478C36.4579 26.6478 37.9821 26.9247 39.4059 27.4283L39.5065 27.6017ZM40.2345 38.5449L37.4566 35.666L40.3015 28.548L47.1026 35.597L40.2345 38.5449ZM42.9284 41.3372L47.3539 36.8137V45.9237L42.9284 41.3372ZM42.4607 41.8152L46.3746 45.8715L40.8432 43.4682L42.4607 41.8152ZM40.7375 39.0662L46.732 36.4926L42.4637 40.8556L40.7375 39.0662ZM35.694 41.2312L40.0804 39.3483L41.996 41.3336L40.1865 43.1832L35.694 41.2312ZM35.5384 41.9014L39.6797 43.7009L37.2425 46.1922L35.5384 41.9014ZM34.2783 41.8388L32.5595 46.1392L30.1289 43.6202L34.2783 41.8388ZM34.3248 40.6361L30.1556 38.8246L32.6001 36.2948L34.3248 40.6361ZM37.1844 36.3469L39.5774 38.827L35.4923 40.5807L37.1844 36.3469ZM34.8685 33.9468L36.6814 35.8257L34.8979 40.289L33.1039 35.7735L34.8685 33.9468ZM34.4038 33.4652L32.8328 35.0908L30.6354 29.5597L34.4038 33.4652ZM39.2417 29.4208L36.9536 35.1451L35.3335 33.4656L39.2417 29.4208ZM34.8685 32.984L30.3322 28.2828H39.4105L34.8685 32.984ZM27.8273 41.2348L29.6534 39.3447L33.986 41.2272L29.6263 43.0989L27.8273 41.2348ZM27.3626 41.7156L28.9692 43.381L23.4749 45.7395L27.3626 41.7156ZM23.3692 36.6146L28.9979 39.0602L27.3626 40.7529L23.3692 36.6146ZM26.8975 41.2341L22.4004 45.8888V36.5733L26.8975 41.2341ZM34.4425 49.0535L30.4922 53.0915L32.7903 47.3411L34.4425 49.0535ZM37.0075 47.3889L39.2762 53.0999L35.375 49.0571L37.0075 47.3889ZM34.9107 48.5755L33.0625 46.6605L34.8959 42.0732L36.7372 46.7087L34.9107 48.5755ZM39.8446 26.8633L38.161 23.9663L40.3786 20.7273L39.9147 20.257L37.5089 22.1126V19.7213L36.9211 19.5122L34.877 22.2358L32.8332 19.5122L32.2454 19.7213V22.1126L29.8396 20.257L29.3757 20.7273L31.5933 23.9663L29.9124 26.8588C24.2176 28.9742 20.1321 34.6225 20.1321 41.2433C20.1321 49.6667 26.7442 56.5194 34.872 56.5194C42.9996 56.5194 49.6122 49.6667 49.6122 41.2433C49.6122 34.6277 45.5324 28.9826 39.8446 26.8633Z" fill="white"/>
<path d="M14.4953 51.4583L5.4348 37.8556L9.53734 32.6069H8.73001L2.93066 39.9436V40.7025L9.32326 50.148C9.73679 50.7833 10.1852 51.2793 10.668 51.6368C11.1505 51.9944 11.7367 52.173 12.4264 52.173H15.6446V51.8155L14.4953 51.4583Z" fill="white"/>
<path d="M2.99554 47.5051H0V32.6191H2.99554V47.5051Z" fill="white"/>
<path d="M55.2487 51.4583L64.3092 37.8556L60.2066 32.6069H61.0139L66.8134 39.9436V40.7025L60.4208 50.148C60.0072 50.7833 59.5588 51.2793 59.0759 51.6368C58.5935 51.9944 58.0072 52.173 57.3176 52.173H54.0994V51.8155L55.2487 51.4583Z" fill="white"/>
<path d="M66.748 47.5051H69.7435V32.6191H66.748V47.5051Z" fill="white"/>
<path d="M8.35673 13.5232L11.3039 13.6906L10.7064 10.6904L11.1331 10.1763L14.4721 13.1516L14.0291 13.6853L12.6219 12.4317C12.4152 12.2474 12.2231 12.0688 12.0454 11.8963C11.8676 11.7241 11.6965 11.5439 11.5311 11.3565L12.0411 14.0722L11.7701 14.3984L9.11138 14.2732C9.3155 14.4145 9.51181 14.5641 9.7019 14.7219C9.89166 14.8796 10.0903 15.0506 10.2967 15.2347L11.7042 16.4884L11.2608 17.0222L7.92188 14.0473L8.35673 13.5232Z" fill="white"/>
<path d="M16.5511 5.60645L16.5638 9.06446L17.6205 10.5003L17.0804 10.9273L16.0465 9.52239L12.7095 8.64231L13.4397 8.06524L15.9366 8.78157L15.8909 6.12814L16.5511 5.60645Z" fill="white"/>
<path d="M23.3354 7.0431L22.6992 7.2907L21.1519 3.01799L21.7881 2.77079L22.6102 5.04098L23.3327 3.77125L24.4792 1.72378L25.3981 1.36621L23.9685 3.89324L26.8866 5.6618L26.0506 5.98726L23.6278 4.49239L22.8843 5.79784L23.3354 7.0431Z" fill="white"/>
<path d="M29.5335 2.03208L29.1528 3.38729L30.9673 3.09233L30.1945 1.89844C30.1171 1.77886 30.0419 1.66128 29.9695 1.5457C29.8963 1.42972 29.8223 1.30331 29.7465 1.16606C29.7154 1.32498 29.6818 1.47466 29.6453 1.61432C29.6094 1.75478 29.5722 1.89363 29.5335 2.03208ZM32.0198 4.70317L31.3735 3.71275L28.9557 4.10563L28.6328 5.25336L27.9304 5.36773L29.2806 0.528789L30.045 0.404785L32.7528 4.58398L32.0198 4.70317Z" fill="white"/>
<path d="M34.2492 3.17327C34.4714 3.44576 34.7103 3.65925 34.9663 3.81335C35.2215 3.96745 35.5316 4.05053 35.8964 4.06216C36.0974 4.06859 36.2929 4.04933 36.4834 4.00317C36.6735 3.95742 36.8299 3.88318 36.9528 3.78045C37.0755 3.67812 37.1394 3.54448 37.1444 3.37914C37.1486 3.23587 37.0987 3.1211 36.9945 3.03522C36.89 2.94894 36.7359 2.87992 36.5322 2.82735C36.3278 2.77517 36.0819 2.72461 35.7937 2.67605C35.4391 2.61224 35.1325 2.52275 34.8737 2.40798C34.6147 2.29281 34.4172 2.14271 34.2801 1.95771C34.1435 1.77311 34.0788 1.54557 34.0869 1.2763C34.0958 0.994178 34.1868 0.757006 34.3603 0.56478C34.5342 0.372554 34.7642 0.228085 35.0503 0.130567C35.3365 0.033451 35.6513 -0.00948866 35.9951 0.00174792C36.4226 0.0157935 36.7901 0.0976602 37.0983 0.246945C37.4062 0.396232 37.6447 0.601701 37.8127 0.863753L37.3446 1.35736C37.1955 1.1523 37.0058 0.982943 36.7746 0.849306C36.5438 0.715672 36.2716 0.643436 35.9568 0.633403C35.6385 0.622969 35.3705 0.669521 35.1533 0.773459C34.9361 0.876996 34.8246 1.0311 34.8184 1.23496C34.8133 1.39147 34.8622 1.51828 34.964 1.615C35.0659 1.71172 35.2103 1.78956 35.3976 1.84775C35.5843 1.90595 35.8034 1.95892 36.0536 2.00627C36.2956 2.04439 36.5272 2.09376 36.7475 2.15315C36.9678 2.21214 37.1638 2.28839 37.3357 2.38109C37.5065 2.47379 37.6416 2.59458 37.7399 2.74307C37.8379 2.89236 37.8836 3.07736 37.877 3.29888C37.8681 3.59424 37.7791 3.84907 37.6114 4.06297C37.4429 4.27726 37.2098 4.43899 36.9105 4.54895C36.6112 4.6585 36.2603 4.70707 35.858 4.69382C35.4263 4.67937 35.0387 4.59711 34.6949 4.44662C34.3514 4.29653 34.0502 4.06016 33.7915 3.73871L34.2492 3.17327Z" fill="white"/>
<path d="M41.526 2.29183L40.6919 3.40785L42.4848 3.82361L42.1885 2.41864C42.1587 2.27818 42.1304 2.14053 42.1037 2.00489C42.077 1.86965 42.0526 1.72357 42.0309 1.56707C41.9454 1.70351 41.8609 1.82952 41.7777 1.9463C41.6948 2.06267 41.6108 2.17785 41.526 2.29183ZM42.8929 5.72218L42.6424 4.55519L40.2543 4.00098L39.5477 4.94605L38.8538 4.78513L41.8234 0.797363L42.5781 0.972732L43.6173 5.89032L42.8929 5.72218Z" fill="white"/>
<path d="M48.4577 3.77432L47.015 3.10936L46.4194 4.49707L47.8966 5.17808C48.0384 5.2435 48.1816 5.27039 48.3265 5.25875C48.4717 5.24711 48.6021 5.20257 48.718 5.12512C48.8337 5.04767 48.9197 4.94373 48.9762 4.8125C49.0305 4.68569 49.0432 4.55446 49.0141 4.41962C48.9844 4.28478 48.9208 4.16038 48.8229 4.046C48.725 3.93204 48.6033 3.84134 48.4577 3.77432ZM49.6286 5.1203C49.547 5.31092 49.4308 5.47144 49.2809 5.60227C49.1307 5.73269 48.9604 5.8278 48.7694 5.8876C48.5786 5.94699 48.3814 5.96786 48.1778 5.9502L48.6099 8.1044L47.8421 7.74323L47.4409 5.71022L46.1534 5.11669L45.4912 6.65931L44.8706 6.37357L46.6599 2.20361L48.8849 3.22895C49.1144 3.33489 49.3038 3.4902 49.4525 3.69406C49.6012 3.89833 49.6945 4.12466 49.7328 4.37267C49.7708 4.62107 49.7363 4.87029 49.6286 5.1203Z" fill="white"/>
<path d="M52.1693 10.4965L49.8391 8.87682L50.2108 8.30297L51.0936 8.91656L52.8036 6.27438L51.9204 5.66078L52.2921 5.08691L54.622 6.70658L54.2506 7.28044L53.3678 6.66685L51.6582 9.309L52.5407 9.92262L52.1693 10.4965Z" fill="white"/>
<path d="M59.3554 11.0564L59.8413 11.5485L56.7653 14.8134L56.2832 14.3259L56.3111 9.36974C56.1415 9.58689 55.9722 9.80438 55.8026 10.0214C55.633 10.2386 55.4545 10.4468 55.2667 10.6459L53.9882 12.0031L53.5022 11.5111L56.5782 8.24609L57.051 8.72445L56.9662 13.7504C57.0886 13.577 57.2291 13.3957 57.3872 13.2059C57.5451 13.0164 57.7066 12.8294 57.8723 12.6444C58.0377 12.4599 58.1953 12.2876 58.3447 12.1291L59.3554 11.0564Z" fill="white"/>
<path d="M61.2193 15.9587L59.8726 16.1718L60.8953 17.7534L61.6147 16.5238C61.6867 16.4006 61.758 16.2806 61.8285 16.1634C61.8993 16.0462 61.9787 15.9231 62.0666 15.7938C61.9144 15.8319 61.7696 15.8633 61.6313 15.8882C61.4939 15.9134 61.3564 15.9367 61.2193 15.9587ZM59.9292 19.4208L60.5235 18.3963L59.1613 16.2894L58.0206 16.4692L57.6252 15.8572L62.4279 15.0879L62.8585 15.7541L60.3423 20.0601L59.9292 19.4208Z" fill="white"/>
<path d="M62.648 63.8798L59.6963 63.9091L60.4781 66.8631L60.0846 67.4044L56.5684 64.6575L56.9769 64.0953L58.4591 65.2531C58.6767 65.4232 58.8796 65.5881 59.0675 65.7486C59.2553 65.9091 59.4376 66.0773 59.6142 66.2531L58.9373 63.5772L59.1871 63.2336L61.8485 63.1815C61.6363 63.0538 61.4302 62.9183 61.2316 62.773C61.0318 62.6285 60.8235 62.4708 60.6058 62.3006L59.124 61.1437L59.5329 60.5811L63.0492 63.328L62.648 63.8798Z" fill="white"/>
<path d="M54.96 72.3255L54.7331 68.8755L53.5896 67.5127L54.1023 67.0508L55.221 68.3843L58.6056 69.0401L57.9125 69.6648L55.3766 69.1163L55.5865 71.7608L54.96 72.3255Z" fill="white"/>
<path d="M48.1075 71.3425L48.7266 71.0527L50.5391 75.2119L49.92 75.5016L48.9566 73.2912L48.3153 74.6075L47.3001 76.728L46.4056 77.1465L47.6738 74.5284L44.6504 72.9605L45.4647 72.5797L47.9761 73.908L48.6356 72.5548L48.1075 71.3425Z" fill="white"/>
<path d="M42.2261 76.7635L42.5215 75.3854L40.7291 75.8016L41.5744 76.941C41.6596 77.0553 41.7417 77.1677 41.8214 77.278C41.9012 77.3888 41.9833 77.51 42.0677 77.6416C42.089 77.4811 42.113 77.3294 42.1401 77.1877C42.1676 77.0453 42.1963 76.904 42.2261 76.7635ZM39.5782 74.2642L40.285 75.2093L42.6729 74.6555L42.9238 73.4885L43.6178 73.3271L42.5723 78.2464L41.8168 78.4217L38.8538 74.4324L39.5782 74.2642Z" fill="white"/>
<path d="M37.4496 75.9391C37.2111 75.6815 36.9595 75.4844 36.6954 75.3472C36.4308 75.2104 36.1165 75.1477 35.7517 75.1602C35.5507 75.1662 35.3567 75.1987 35.1693 75.2574C34.9823 75.3156 34.8305 75.3998 34.7147 75.5106C34.5985 75.6205 34.5428 75.7582 34.5479 75.9235C34.5525 76.0668 34.609 76.1779 34.7186 76.257C34.8278 76.3361 34.9862 76.395 35.193 76.4335C35.3997 76.4725 35.6484 76.507 35.9387 76.5363C36.2965 76.5772 36.6083 76.6463 36.8735 76.7441C37.1383 76.8417 37.3451 76.9785 37.493 77.1539C37.6413 77.3297 37.7191 77.5524 37.7277 77.8213C37.7362 78.1038 37.6595 78.3466 37.4981 78.5497C37.3366 78.7531 37.1159 78.9121 36.836 79.028C36.5564 79.1436 36.245 79.2074 35.9011 79.2186C35.4733 79.2327 35.1016 79.1749 34.7848 79.0465C34.4685 78.9177 34.2179 78.7279 34.0344 78.4774L34.4716 77.9541C34.6331 78.1491 34.8324 78.3056 35.071 78.4236C35.3099 78.542 35.5864 78.5962 35.9004 78.5862C36.2191 78.5753 36.4836 78.5112 36.6942 78.3935C36.9044 78.2756 37.0063 78.1146 37.0001 77.9104C36.9954 77.7539 36.9393 77.6311 36.8313 77.5412C36.724 77.4513 36.5749 77.3834 36.3848 77.3369C36.1947 77.2911 35.9732 77.2526 35.7203 77.2221C35.4764 77.1997 35.2425 77.1664 35.0187 77.121C34.7953 77.0764 34.5947 77.0134 34.4182 76.9324C34.2416 76.8509 34.0999 76.7394 33.9925 76.5973C33.8853 76.4548 33.8284 76.273 33.8218 76.0515C33.8125 75.7562 33.8857 75.4961 34.0402 75.2713C34.1951 75.0466 34.4181 74.8701 34.71 74.7409C35.002 74.6117 35.349 74.5406 35.7514 74.527C36.1831 74.5129 36.5749 74.5699 36.9269 74.6971C37.2797 74.8251 37.5945 75.0407 37.8721 75.3448L37.4496 75.9391Z" fill="white"/>
<path d="M30.2538 77.3026L31.0162 76.1328L29.2014 75.8386L29.5851 77.2204C29.6238 77.3588 29.6606 77.4944 29.6959 77.6281C29.7303 77.7613 29.764 77.9049 29.7957 78.0598C29.8725 77.9178 29.9487 77.7862 30.0242 77.6641C30.1001 77.5426 30.1768 77.4222 30.2538 77.3026ZM28.6747 73.9713L28.9981 75.1194L31.4159 75.5112L32.0617 74.5203L32.7642 74.6347L30.0517 78.8139L29.2869 78.6899L27.9414 73.8525L28.6747 73.9713Z" fill="white"/>
<path d="M23.2437 76.2904L24.7252 76.8567L25.2324 75.4313L23.7153 74.8518C23.5701 74.7959 23.4253 74.7787 23.2812 74.8004C23.1372 74.822 23.0098 74.8751 22.8991 74.9605C22.7883 75.0452 22.7089 75.1552 22.6614 75.2896C22.6148 75.42 22.6102 75.5516 22.6482 75.684C22.6861 75.8165 22.7574 75.9365 22.8623 76.044C22.9669 76.1508 23.0942 76.233 23.2437 76.2904ZM21.9906 75.0264C22.0599 74.8305 22.1661 74.6623 22.3074 74.5223C22.4491 74.3814 22.6133 74.2755 22.7999 74.2032C22.9866 74.1306 23.1821 74.0965 23.3858 74.1006L22.8197 71.9805L23.6081 72.2882L24.1366 74.2904L25.4586 74.7952L26.0224 73.2112L26.6597 73.4548L25.1364 77.7368L22.8518 76.8635C22.616 76.7732 22.4173 76.6315 22.2559 76.4377C22.0948 76.2439 21.9876 76.0243 21.9337 75.7796C21.8803 75.534 21.8989 75.2832 21.9906 75.0264Z" fill="white"/>
<path d="M19.1103 69.8267L21.5362 71.2878L21.2009 71.8849L20.282 71.3315L18.7398 74.0821L19.659 74.6355L19.3241 75.2334L16.8982 73.7727L17.2331 73.1751L18.1524 73.7286L19.6947 70.9776L18.7754 70.4242L19.1103 69.8267Z" fill="white"/>
<path d="M11.915 69.7545L11.3992 69.2958L14.2658 65.8325L14.7769 66.2864L15.0576 71.2345C15.2137 71.0061 15.3689 70.7783 15.5247 70.5499C15.6803 70.3219 15.8452 70.1021 16.0203 69.8913L17.2121 68.4511L17.7279 68.9098L14.8606 72.3734L14.3591 71.9276L14.1314 66.906C14.0199 67.0875 13.8913 67.2785 13.7454 67.4779C13.5994 67.6774 13.4495 67.8748 13.2958 68.0707C13.1425 68.2661 12.9961 68.4483 12.8571 68.6164L11.915 69.7545Z" fill="white"/>
<path d="M9.74605 64.9825L11.0765 64.6799L9.95741 63.1699L9.31619 64.4448C9.25232 64.5729 9.18844 64.6973 9.12491 64.8188C9.0618 64.9408 8.99018 65.0689 8.9104 65.2036C9.06027 65.1559 9.20273 65.1146 9.33865 65.0805C9.47456 65.0459 9.61014 65.0135 9.74605 64.9825ZM10.8182 61.4414L10.2885 62.5037L11.7789 64.515L12.9061 64.2594L13.339 64.8437L8.59367 65.9321L8.1228 65.2959L10.3663 60.8311L10.8182 61.4414Z" fill="white"/>
</g>
<defs>
<clipPath id="clip0_2022_2824">
<rect width="69.7436" height="80" fill="white"/>
</clipPath>
</defs>
</svg>
