<svg width="1380" height="731" viewBox="0 0 1380 731" fill="none" xmlns="http://www.w3.org/2000/svg">
<g clip-path="url(#clip0_219_4565)">
<rect width="1380" height="731" rx="20" fill="black"/>
<g filter="url(#filter0_f_219_4565)">
<path d="M1349 742.986C1349 918.06 1207.07 1059.99 1032 1059.99C856.926 1059.99 630 659.56 630 484.486C630 309.412 888.426 636.986 1063.5 636.986C1238.57 636.986 1349 567.912 1349 742.986Z" fill="#0F87BB"/>
<path d="M1348.5 742.986C1348.5 917.784 1206.8 1059.49 1032 1059.49C988.413 1059.49 941.519 1034.55 895.658 994.308C849.809 954.072 805.059 898.588 765.767 837.618C726.477 776.65 692.656 710.214 668.659 648.087C644.658 585.951 630.5 528.165 630.5 484.486C630.5 462.633 634.538 448.77 641.809 441.117C649.043 433.503 659.604 431.915 673.004 434.942C686.409 437.97 702.539 445.594 720.748 456.233C738.949 466.867 759.191 480.492 780.812 495.494C788.483 500.816 796.328 506.312 804.316 511.908C841.346 537.849 881.458 565.95 921.658 588.972C970.52 616.955 1019.59 637.486 1063.5 637.486C1106.68 637.486 1145.92 633.288 1180.53 629.586L1182.02 629.426C1217.01 625.684 1247.17 622.529 1271.86 624.831C1296.52 627.131 1315.63 634.872 1328.6 652.856C1341.6 670.871 1348.5 699.25 1348.5 742.986Z" stroke="white" stroke-opacity="0.2"/>
</g>
<g filter="url(#filter1_f_219_4565)">
<path d="M1796 235C1796 59.9256 1654.07 -82 1479 -82C1303.93 -82 1077 318.426 1077 493.5C1077 668.574 1335.43 341 1510.5 341C1685.57 341 1796 410.074 1796 235Z" fill="#015B83"/>
<path d="M1795.5 235C1795.5 60.2018 1653.8 -81.5 1479 -81.5C1435.41 -81.5 1388.52 -56.5688 1342.66 -16.3221C1296.81 23.9134 1252.06 79.3976 1212.77 140.368C1173.48 201.336 1139.66 267.772 1115.66 329.899C1091.66 392.035 1077.5 449.821 1077.5 493.5C1077.5 515.353 1081.54 529.215 1088.81 536.868C1096.04 544.483 1106.6 546.07 1120 543.044C1133.41 540.016 1149.54 532.392 1167.75 521.753C1185.95 511.118 1206.19 497.494 1227.81 482.492C1235.48 477.17 1243.33 471.674 1251.32 466.078C1288.35 440.137 1328.46 412.036 1368.66 389.014C1417.52 361.031 1466.59 340.5 1510.5 340.5C1553.68 340.5 1592.92 344.698 1627.53 348.4L1629.02 348.56C1664.01 352.302 1694.17 355.457 1718.86 353.155C1743.52 350.855 1762.63 343.114 1775.6 325.129C1788.6 307.114 1795.5 278.735 1795.5 235Z" stroke="white" stroke-opacity="0.2"/>
</g>
<g filter="url(#filter2_f_219_4565)">
<path d="M197 26.5401C197 201.614 399.074 329.54 224 329.54C48.9257 329.54 -93 187.614 -93 12.5401C-93 -162.534 496.426 53.0401 671.5 53.0401C846.574 53.0401 197 -148.534 197 26.5401Z" fill="#0F87BB"/>
<path d="M196.5 26.5401C196.5 101.529 233.508 167.888 262.114 219.181C266.961 227.873 271.567 236.132 275.711 243.928C282.868 257.39 288.64 269.454 291.917 279.98C295.196 290.513 295.952 299.428 293.174 306.636C290.407 313.818 284.086 319.418 272.944 323.228C261.791 327.042 245.864 329.04 224 329.04C49.2019 329.04 -92.5 187.338 -92.5 12.5401C-92.5 -9.17376 -83.3766 -24.7985 -67.0558 -35.5678C-50.7013 -46.3594 -27.0932 -52.2903 1.87122 -54.4927C59.7934 -58.8969 138.885 -48.3758 223.504 -32.3715C227.961 -31.5286 232.433 -30.6705 236.917 -29.7986C232.379 -27.7601 228.162 -25.5004 224.298 -23.0068C206.753 -11.6824 196.5 4.46662 196.5 26.5401ZM240.279 -30.162C255.665 -36.5581 274.545 -40.5891 295.809 -42.6812C353.898 -48.3961 429.566 -39.6239 499.803 -25.3727C570.038 -11.1221 634.783 8.59457 671.015 24.7364C680.073 28.7717 687.332 32.576 692.444 36.007C695 37.7228 697.006 39.3359 698.429 40.8273C699.859 42.3262 700.661 43.6607 700.886 44.8162C701.103 45.9304 700.795 46.9299 699.861 47.8443C698.902 48.7833 697.278 49.6323 694.881 50.3395C690.093 51.752 682.431 52.5401 671.5 52.5401C627.796 52.5401 558.188 39.0815 478.294 21.6037C455.4 16.5952 431.663 11.2572 407.455 5.81331C352.712 -6.4973 295.559 -19.35 240.279 -30.162Z" stroke="white" stroke-opacity="0.2"/>
</g>
<g filter="url(#filter3_f_219_4565)">
<path d="M300 473.54C300 648.614 502.074 776.54 327 776.54C151.926 776.54 10 634.614 10 459.54C10 284.466 599.426 500.04 774.5 500.04C949.574 500.04 300 298.466 300 473.54Z" fill="#015B83"/>
<path d="M299.5 473.54C299.5 548.529 336.508 614.888 365.114 666.181C369.961 674.873 374.567 683.132 378.711 690.928C385.868 704.39 391.64 716.454 394.917 726.98C398.196 737.513 398.952 746.428 396.174 753.636C393.407 760.818 387.086 766.418 375.944 770.228C364.791 774.042 348.864 776.04 327 776.04C152.202 776.04 10.5 634.338 10.5 459.54C10.5 437.826 19.6234 422.202 35.9442 411.432C52.2987 400.641 75.9068 394.71 104.871 392.507C162.793 388.103 241.885 398.624 326.504 414.629C330.961 415.471 335.433 416.33 339.917 417.201C335.379 419.24 331.162 421.5 327.298 423.993C309.753 435.318 299.5 451.467 299.5 473.54ZM343.279 416.838C358.665 410.442 377.545 406.411 398.809 404.319C456.898 398.604 532.566 407.376 602.803 421.627C673.038 435.878 737.783 455.595 774.015 471.736C783.073 475.772 790.332 479.576 795.444 483.007C798 484.723 800.006 486.336 801.429 487.827C802.859 489.326 803.661 490.661 803.886 491.816C804.103 492.93 803.795 493.93 802.861 494.844C801.902 495.783 800.278 496.632 797.881 497.34C793.093 498.752 785.431 499.54 774.5 499.54C730.796 499.54 661.188 486.081 581.294 468.604C558.4 463.595 534.663 458.257 510.455 452.813C455.712 440.503 398.559 427.65 343.279 416.838Z" stroke="white" stroke-opacity="0.2"/>
</g>
<g filter="url(#filter4_f_219_4565)">
<path d="M1108 -72.4599C1108 102.614 1310.07 230.54 1135 230.54C959.926 230.54 818 88.6143 818 -86.4599C818 -261.534 1407.43 -45.9599 1582.5 -45.9599C1757.57 -45.9599 1108 -247.534 1108 -72.4599Z" fill="#015B83"/>
<path d="M1107.5 -72.4599C1107.5 2.52863 1144.51 68.8875 1173.11 120.181C1177.96 128.873 1182.57 137.132 1186.71 144.928C1193.87 158.39 1199.64 170.454 1202.92 180.98C1206.2 191.513 1206.95 200.428 1204.17 207.636C1201.41 214.818 1195.09 220.418 1183.94 224.228C1172.79 228.042 1156.86 230.04 1135 230.04C960.202 230.04 818.5 88.3382 818.5 -86.4599C818.5 -108.174 827.623 -123.798 843.944 -134.568C860.299 -145.359 883.907 -151.29 912.871 -153.493C970.793 -157.897 1049.89 -147.376 1134.5 -131.371C1138.96 -130.529 1143.43 -129.67 1147.92 -128.799C1143.38 -126.76 1139.16 -124.5 1135.3 -122.007C1117.75 -110.682 1107.5 -94.5334 1107.5 -72.4599ZM1151.28 -129.162C1166.67 -135.558 1185.54 -139.589 1206.81 -141.681C1264.9 -147.396 1340.57 -138.624 1410.8 -124.373C1481.04 -110.122 1545.78 -90.4054 1582.02 -74.2636C1591.07 -70.2283 1598.33 -66.424 1603.44 -62.993C1606 -61.2772 1608.01 -59.6641 1609.43 -58.1727C1610.86 -56.6738 1611.66 -55.3393 1611.89 -54.1838C1612.1 -53.0696 1611.79 -52.0701 1610.86 -51.1557C1609.9 -50.2167 1608.28 -49.3677 1605.88 -48.6605C1601.09 -47.248 1593.43 -46.4599 1582.5 -46.4599C1538.8 -46.4599 1469.19 -59.9185 1389.29 -77.3963C1366.4 -82.4048 1342.66 -87.7428 1318.45 -93.1867C1263.71 -105.497 1206.56 -118.35 1151.28 -129.162Z" stroke="white" stroke-opacity="0.2"/>
</g>
</g>
<defs>
<filter id="filter0_f_219_4565" x="308.1" y="111.1" width="1362.8" height="1270.79" filterUnits="userSpaceOnUse" color-interpolation-filters="sRGB">
<feFlood flood-opacity="0" result="BackgroundImageFix"/>
<feBlend mode="normal" in="SourceGraphic" in2="BackgroundImageFix" result="shape"/>
<feGaussianBlur stdDeviation="160.95" result="effect1_foregroundBlur_219_4565"/>
</filter>
<filter id="filter1_f_219_4565" x="755.1" y="-403.9" width="1362.8" height="1270.79" filterUnits="userSpaceOnUse" color-interpolation-filters="sRGB">
<feFlood flood-opacity="0" result="BackgroundImageFix"/>
<feBlend mode="normal" in="SourceGraphic" in2="BackgroundImageFix" result="shape"/>
<feGaussianBlur stdDeviation="160.95" result="effect1_foregroundBlur_219_4565"/>
</filter>
<filter id="filter2_f_219_4565" x="-414.9" y="-377.9" width="1438.25" height="1029.34" filterUnits="userSpaceOnUse" color-interpolation-filters="sRGB">
<feFlood flood-opacity="0" result="BackgroundImageFix"/>
<feBlend mode="normal" in="SourceGraphic" in2="BackgroundImageFix" result="shape"/>
<feGaussianBlur stdDeviation="160.95" result="effect1_foregroundBlur_219_4565"/>
</filter>
<filter id="filter3_f_219_4565" x="-311.9" y="69.1" width="1438.25" height="1029.34" filterUnits="userSpaceOnUse" color-interpolation-filters="sRGB">
<feFlood flood-opacity="0" result="BackgroundImageFix"/>
<feBlend mode="normal" in="SourceGraphic" in2="BackgroundImageFix" result="shape"/>
<feGaussianBlur stdDeviation="160.95" result="effect1_foregroundBlur_219_4565"/>
</filter>
<filter id="filter4_f_219_4565" x="496.1" y="-476.9" width="1438.25" height="1029.34" filterUnits="userSpaceOnUse" color-interpolation-filters="sRGB">
<feFlood flood-opacity="0" result="BackgroundImageFix"/>
<feBlend mode="normal" in="SourceGraphic" in2="BackgroundImageFix" result="shape"/>
<feGaussianBlur stdDeviation="160.95" result="effect1_foregroundBlur_219_4565"/>
</filter>
<clipPath id="clip0_219_4565">
<rect width="1380" height="731" rx="20" fill="white"/>
</clipPath>
</defs>
</svg>
